<svg width="53" height="50" viewBox="0 0 53 50" fill="none" xmlns="http://www.w3.org/2000/svg">
<path fill-rule="evenodd" clip-rule="evenodd" d="M6.47446 16.5247C5.1074 15.1581 2.89132 15.1585 1.52472 16.5255C0.158108 17.8926 0.158477 20.1087 1.52554 21.4753L11.4804 31.4268C11.5123 31.4609 11.5516 31.5022 11.598 31.5499C11.702 31.6566 11.843 31.7964 12.0177 31.9582C12.3637 32.2787 12.8598 32.7024 13.4786 33.1298C14.6494 33.9385 16.604 35 19.0033 35C21.4026 35 23.3572 33.9385 24.528 33.1298C25.1468 32.7024 25.6429 32.2787 25.9889 31.9583C26.1636 31.7964 26.3046 31.6566 26.4086 31.5499C26.4551 31.5021 26.4946 31.4607 26.5265 31.4265L51.4782 6.47486C52.845 5.10802 52.845 2.89195 51.4782 1.52511C50.1114 0.158275 47.8953 0.158276 46.5284 1.52511L21.5284 26.5251L21.4602 26.5933L21.4122 26.647L21.3949 26.6649C21.3657 26.6949 21.3102 26.7504 21.2319 26.823C21.0718 26.9713 20.8357 27.1726 20.5497 27.3702C19.9108 27.8115 19.3654 28 19.0033 28C18.6412 28 18.0958 27.8115 17.457 27.3702C17.1709 27.1726 16.9348 26.9713 16.7747 26.823C16.6964 26.7504 16.641 26.6949 16.6117 26.6649L16.5945 26.647L16.5462 26.5931L16.4778 26.5247L6.47446 16.5247ZM6.47487 31.5251C5.10804 30.1583 2.89196 30.1583 1.52512 31.5251C0.158291 32.892 0.158293 35.108 1.52513 36.4749L11.4768 46.4265C11.5088 46.4607 11.5482 46.5021 11.5947 46.5499C11.6987 46.6566 11.8397 46.7964 12.0144 46.9582C12.3604 47.2787 12.8565 47.7024 13.4753 48.1298C14.6461 48.9385 16.6007 50 19 50C21.3993 50 23.3539 48.9385 24.5247 48.1298C25.1435 47.7024 25.6396 47.2787 25.9856 46.9583C26.1603 46.7964 26.3013 46.6566 26.4053 46.5499C26.4518 46.5021 26.4912 46.4607 26.5232 46.4265L51.4749 21.4749C52.8417 20.108 52.8417 17.8919 51.4749 16.5251C50.108 15.1583 47.892 15.1583 46.5251 16.5251L21.5251 41.5251L21.4569 41.5933L21.4089 41.647L21.3916 41.6649C21.3623 41.6949 21.3069 41.7504 21.2286 41.823C21.0685 41.9713 20.8324 42.1726 20.5463 42.3702C19.9075 42.8115 19.3621 43 19 43C18.6379 43 18.0925 42.8115 17.4537 42.3702C17.1676 42.1726 16.9315 41.9713 16.7714 41.823C16.6931 41.7504 16.6377 41.6949 16.6084 41.6649L16.5911 41.647L16.5431 41.5933L16.4749 41.5251L6.47487 31.5251Z" fill="black"/>
</svg>
